<mxfile host="app.diagrams.net" modified="2024-03-29T07:58:32.005Z" agent="Mozilla/5.0 (X11; Linux x86_64) AppleWebKit/537.36 (KHTML, like Gecko) Chrome/123.0.0.0 Safari/537.36" etag="F5TwUy7WNqAj21LKg-CB" version="24.2.1" type="device">
  <diagram name="Page-1" id="hP-I53t2JYXz8ZBBUXBX">
    <mxGraphModel dx="1276" dy="888" grid="1" gridSize="10" guides="1" tooltips="1" connect="1" arrows="1" fold="1" page="1" pageScale="1" pageWidth="850" pageHeight="1100" math="0" shadow="0">
      <root>
        <mxCell id="0" />
        <mxCell id="1" parent="0" />
        <mxCell id="7oPXKLgTGgLp6nDbqEUT-3" value="&lt;font style=&quot;font-size: 10px;&quot;&gt;/var/lib/&lt;/font&gt;&lt;div&gt;&lt;font style=&quot;font-size: 10px;&quot;&gt;sofhsm&lt;/font&gt;&lt;/div&gt;" style="shape=cylinder3;whiteSpace=wrap;html=1;boundedLbl=1;backgroundOutline=1;size=15;" vertex="1" parent="1">
          <mxGeometry x="395" y="504" width="60" height="80" as="geometry" />
        </mxCell>
        <mxCell id="7oPXKLgTGgLp6nDbqEUT-4" value="&lt;font style=&quot;font-size: 10px;&quot;&gt;/tmp/kleidi-kms&lt;/font&gt;" style="shape=cylinder3;whiteSpace=wrap;html=1;boundedLbl=1;backgroundOutline=1;size=15;" vertex="1" parent="1">
          <mxGeometry x="465" y="504" width="60" height="80" as="geometry" />
        </mxCell>
        <mxCell id="7oPXKLgTGgLp6nDbqEUT-10" value="&lt;span style=&quot;font-size: 10px;&quot;&gt;/opt/kleidi/&lt;/span&gt;&lt;div&gt;&lt;span style=&quot;font-size: 10px;&quot;&gt;config.json&lt;/span&gt;&lt;/div&gt;" style="shape=cylinder3;whiteSpace=wrap;html=1;boundedLbl=1;backgroundOutline=1;size=15;dashed=1;" vertex="1" parent="1">
          <mxGeometry x="325" y="504" width="60" height="80" as="geometry" />
        </mxCell>
        <mxCell id="7oPXKLgTGgLp6nDbqEUT-15" value="kleidi-softhsm" style="aspect=fixed;sketch=0;html=1;dashed=0;whitespace=wrap;fillColor=#2875E2;strokeColor=#ffffff;points=[[0.005,0.63,0],[0.1,0.2,0],[0.9,0.2,0],[0.5,0,0],[0.995,0.63,0],[0.72,0.99,0],[0.5,1,0],[0.28,0.99,0]];shape=mxgraph.kubernetes.icon2;kubernetesLabel=1;prIcon=pod;labelPosition=center;verticalLabelPosition=top;align=center;verticalAlign=bottom;" vertex="1" parent="1">
          <mxGeometry x="400" y="120" width="50" height="48" as="geometry" />
        </mxCell>
        <mxCell id="7oPXKLgTGgLp6nDbqEUT-20" value="" style="aspect=fixed;sketch=0;html=1;dashed=0;whitespace=wrap;fillColor=#2875E2;strokeColor=#ffffff;points=[[0.005,0.63,0],[0.1,0.2,0],[0.9,0.2,0],[0.5,0,0],[0.995,0.63,0],[0.72,0.99,0],[0.5,1,0],[0.28,0.99,0]];shape=mxgraph.kubernetes.icon2;prIcon=pv" vertex="1" parent="1">
          <mxGeometry x="330" y="230" width="50" height="48" as="geometry" />
        </mxCell>
        <mxCell id="7oPXKLgTGgLp6nDbqEUT-35" style="edgeStyle=orthogonalEdgeStyle;rounded=0;orthogonalLoop=1;jettySize=auto;html=1;exitX=0.5;exitY=1;exitDx=0;exitDy=0;exitPerimeter=0;" edge="1" parent="1" source="7oPXKLgTGgLp6nDbqEUT-21" target="7oPXKLgTGgLp6nDbqEUT-3">
          <mxGeometry relative="1" as="geometry" />
        </mxCell>
        <mxCell id="7oPXKLgTGgLp6nDbqEUT-21" value="" style="aspect=fixed;sketch=0;html=1;dashed=0;whitespace=wrap;fillColor=#2875E2;strokeColor=#ffffff;points=[[0.005,0.63,0],[0.1,0.2,0],[0.9,0.2,0],[0.5,0,0],[0.995,0.63,0],[0.72,0.99,0],[0.5,1,0],[0.28,0.99,0]];shape=mxgraph.kubernetes.icon2;prIcon=pv" vertex="1" parent="1">
          <mxGeometry x="400" y="230" width="50" height="48" as="geometry" />
        </mxCell>
        <mxCell id="7oPXKLgTGgLp6nDbqEUT-22" value="" style="aspect=fixed;sketch=0;html=1;dashed=0;whitespace=wrap;fillColor=#2875E2;strokeColor=#ffffff;points=[[0.005,0.63,0],[0.1,0.2,0],[0.9,0.2,0],[0.5,0,0],[0.995,0.63,0],[0.72,0.99,0],[0.5,1,0],[0.28,0.99,0]];shape=mxgraph.kubernetes.icon2;prIcon=pv" vertex="1" parent="1">
          <mxGeometry x="470" y="230" width="50" height="48" as="geometry" />
        </mxCell>
        <mxCell id="7oPXKLgTGgLp6nDbqEUT-32" style="edgeStyle=orthogonalEdgeStyle;rounded=0;orthogonalLoop=1;jettySize=auto;html=1;exitX=0.5;exitY=1;exitDx=0;exitDy=0;exitPerimeter=0;entryX=0.5;entryY=0;entryDx=0;entryDy=0;entryPerimeter=0;" edge="1" parent="1" source="7oPXKLgTGgLp6nDbqEUT-22" target="7oPXKLgTGgLp6nDbqEUT-4">
          <mxGeometry relative="1" as="geometry" />
        </mxCell>
        <mxCell id="7oPXKLgTGgLp6nDbqEUT-36" style="edgeStyle=orthogonalEdgeStyle;rounded=0;orthogonalLoop=1;jettySize=auto;html=1;exitX=0.5;exitY=1;exitDx=0;exitDy=0;exitPerimeter=0;entryX=0.5;entryY=0;entryDx=0;entryDy=0;entryPerimeter=0;" edge="1" parent="1" source="7oPXKLgTGgLp6nDbqEUT-20" target="7oPXKLgTGgLp6nDbqEUT-10">
          <mxGeometry relative="1" as="geometry" />
        </mxCell>
        <mxCell id="7oPXKLgTGgLp6nDbqEUT-37" value="api-server" style="aspect=fixed;sketch=0;html=1;dashed=0;whitespace=wrap;fillColor=#2875E2;strokeColor=#ffffff;points=[[0.005,0.63,0],[0.1,0.2,0],[0.9,0.2,0],[0.5,0,0],[0.995,0.63,0],[0.72,0.99,0],[0.5,1,0],[0.28,0.99,0]];shape=mxgraph.kubernetes.icon2;kubernetesLabel=1;prIcon=api;labelPosition=right;verticalLabelPosition=middle;align=left;verticalAlign=middle;" vertex="1" parent="1">
          <mxGeometry x="650" y="360" width="50" height="48" as="geometry" />
        </mxCell>
        <mxCell id="7oPXKLgTGgLp6nDbqEUT-38" value="etcd" style="aspect=fixed;sketch=0;html=1;dashed=0;whitespace=wrap;fillColor=#2875E2;strokeColor=#ffffff;points=[[0.005,0.63,0],[0.1,0.2,0],[0.9,0.2,0],[0.5,0,0],[0.995,0.63,0],[0.72,0.99,0],[0.5,1,0],[0.28,0.99,0]];shape=mxgraph.kubernetes.icon2;prIcon=etcd;labelPosition=center;verticalLabelPosition=bottom;align=center;verticalAlign=top;" vertex="1" parent="1">
          <mxGeometry x="150" y="360" width="50" height="48" as="geometry" />
        </mxCell>
        <mxCell id="7oPXKLgTGgLp6nDbqEUT-39" style="edgeStyle=orthogonalEdgeStyle;rounded=0;orthogonalLoop=1;jettySize=auto;html=1;exitX=0.5;exitY=1;exitDx=0;exitDy=0;exitPerimeter=0;entryX=1;entryY=0;entryDx=0;entryDy=52.5;entryPerimeter=0;fillColor=#f8cecc;strokeColor=#b85450;startArrow=classic;startFill=1;" edge="1" parent="1" source="7oPXKLgTGgLp6nDbqEUT-37" target="7oPXKLgTGgLp6nDbqEUT-4">
          <mxGeometry relative="1" as="geometry" />
        </mxCell>
        <mxCell id="7oPXKLgTGgLp6nDbqEUT-41" style="edgeStyle=orthogonalEdgeStyle;rounded=0;orthogonalLoop=1;jettySize=auto;html=1;exitX=0.005;exitY=0.63;exitDx=0;exitDy=0;exitPerimeter=0;entryX=0.995;entryY=0.63;entryDx=0;entryDy=0;entryPerimeter=0;fillColor=#d5e8d4;strokeColor=#82b366;startArrow=classic;startFill=1;" edge="1" parent="1" source="7oPXKLgTGgLp6nDbqEUT-37" target="7oPXKLgTGgLp6nDbqEUT-38">
          <mxGeometry relative="1" as="geometry" />
        </mxCell>
        <mxCell id="7oPXKLgTGgLp6nDbqEUT-2" value="Master node&lt;div&gt;Linux Operating System&lt;/div&gt;" style="rounded=0;whiteSpace=wrap;html=1;" vertex="1" parent="1">
          <mxGeometry x="285" y="344" width="280" height="80" as="geometry" />
        </mxCell>
        <mxCell id="7oPXKLgTGgLp6nDbqEUT-43" value="kleidi v0.2&lt;div&gt;SoftHSM&lt;/div&gt;" style="text;html=1;align=center;verticalAlign=middle;resizable=0;points=[];autosize=1;strokeColor=none;fillColor=none;" vertex="1" parent="1">
          <mxGeometry x="40" y="15" width="80" height="40" as="geometry" />
        </mxCell>
        <mxCell id="7oPXKLgTGgLp6nDbqEUT-44" style="edgeStyle=orthogonalEdgeStyle;rounded=0;orthogonalLoop=1;jettySize=auto;html=1;exitX=0.995;exitY=0.63;exitDx=0;exitDy=0;exitPerimeter=0;entryX=0.5;entryY=0;entryDx=0;entryDy=0;entryPerimeter=0;startArrow=classic;startFill=1;fillColor=#f8cecc;strokeColor=#b85450;" edge="1" parent="1" source="7oPXKLgTGgLp6nDbqEUT-15" target="7oPXKLgTGgLp6nDbqEUT-37">
          <mxGeometry relative="1" as="geometry" />
        </mxCell>
        <mxCell id="7oPXKLgTGgLp6nDbqEUT-46" style="edgeStyle=orthogonalEdgeStyle;rounded=0;orthogonalLoop=1;jettySize=auto;html=1;exitX=0.5;exitY=1;exitDx=0;exitDy=0;exitPerimeter=0;entryX=0.5;entryY=0;entryDx=0;entryDy=0;entryPerimeter=0;endArrow=none;endFill=0;" edge="1" parent="1" source="7oPXKLgTGgLp6nDbqEUT-15" target="7oPXKLgTGgLp6nDbqEUT-20">
          <mxGeometry relative="1" as="geometry" />
        </mxCell>
        <mxCell id="7oPXKLgTGgLp6nDbqEUT-47" style="edgeStyle=orthogonalEdgeStyle;rounded=0;orthogonalLoop=1;jettySize=auto;html=1;exitX=0.5;exitY=1;exitDx=0;exitDy=0;exitPerimeter=0;entryX=0.5;entryY=0;entryDx=0;entryDy=0;entryPerimeter=0;endArrow=none;endFill=0;" edge="1" parent="1" source="7oPXKLgTGgLp6nDbqEUT-15" target="7oPXKLgTGgLp6nDbqEUT-21">
          <mxGeometry relative="1" as="geometry" />
        </mxCell>
        <mxCell id="7oPXKLgTGgLp6nDbqEUT-48" style="edgeStyle=orthogonalEdgeStyle;rounded=0;orthogonalLoop=1;jettySize=auto;html=1;exitX=0.5;exitY=1;exitDx=0;exitDy=0;exitPerimeter=0;entryX=0.5;entryY=0;entryDx=0;entryDy=0;entryPerimeter=0;endArrow=none;endFill=0;" edge="1" parent="1" source="7oPXKLgTGgLp6nDbqEUT-15" target="7oPXKLgTGgLp6nDbqEUT-22">
          <mxGeometry relative="1" as="geometry" />
        </mxCell>
      </root>
    </mxGraphModel>
  </diagram>
</mxfile>
